<svg width="59" height="65" viewBox="0 0 59 65" fill="none" xmlns="http://www.w3.org/2000/svg">
<path d="M58.35 47.06V63.5C58.35 64.05 57.9 64.5 57.35 64.5H45.47C44.9201 64.5 44.47 64.05 44.47 63.5V47.06C44.47 46.51 44.9201 46.06 45.47 46.06H50.41V38.87H35.7699C35.35 41.58 33.21 43.7299 30.49 44.15V46.06H35.4401C35.99 46.06 36.4401 46.51 36.4401 47.06V63.5C36.4401 64.05 35.99 64.5 35.4401 64.5H23.56C23.01 64.5 22.56 64.05 22.56 63.5V47.06C22.56 46.51 23.01 46.06 23.56 46.06H28.49V44.14C25.7899 43.7099 23.65 41.56 23.23 38.87H8.59002V46.06H13.5299C14.08 46.06 14.5299 46.51 14.5299 47.06V63.5C14.5299 64.05 14.08 64.5 13.5299 64.5H1.65002C1.09002 64.5 0.650024 64.05 0.650024 63.5V47.06C0.650024 46.51 1.09002 46.06 1.65002 46.06H6.59002V37.87C6.59002 37.32 7.03992 36.87 7.59002 36.87H23.23C23.65 34.17 25.7899 32.03 28.49 31.6001V29.34H13.39C8.21002 29.34 3.99002 25.12 3.99002 19.9399C3.99002 16.16 6.26002 12.77 9.70012 11.31C10.81 5.1101 16.2699 0.5 22.63 0.5C28.1801 0.5 33.11 4 34.99 9.13C35.6901 8.9 36.4401 8.79 37.2001 8.79C39.24 8.79 41.15 9.6101 42.5299 11.07C43.51 10.7199 44.5399 10.55 45.59 10.55C50.7799 10.55 55 14.76 55 19.9399C55 25.12 50.7799 29.34 45.59 29.34H30.49V31.59C33.21 32.01 35.35 34.16 35.7699 36.87H51.41C51.96 36.87 52.41 37.32 52.41 37.87V46.06H57.35C57.9 46.06 58.35 46.51 58.35 47.06Z" fill="#fff"/>
</svg>
