<svg width="612" height="369" viewBox="0 0 612 369" fill="none" xmlns="http://www.w3.org/2000/svg">
<g clip-path="url(#clip0)">
<path d="M595.928 369C651.996 269.84 544.456 219.056 530.614 323.767C529.913 310.254 529.171 296.523 524.681 283.758C517.863 257.277 480.815 238.088 463.12 264.894C453.765 281.504 466.17 304.803 455.413 320.542C448.628 280.931 391.104 290.223 397.161 329.968C401.708 349.063 421.886 360.175 437.992 368.813L595.928 369Z" fill="#F2F2F2"/>
<path d="M405.401 305.974C433.861 315.208 469.429 330.762 472.314 364.758C472.397 366.106 474.507 366.115 474.423 364.757C473.686 352.753 467.835 341.768 459.733 333.08C450.85 323.555 439.339 317.05 427.454 312.002C425.131 311.465 400.944 300.024 405.401 305.974Z" fill="white"/>
<path d="M477.306 256.251C497.002 289.135 506.374 327.173 504.208 365.442C504.13 366.798 506.239 366.793 506.317 365.442C507.996 335.363 502.639 305.307 490.67 277.66C489.326 275.185 478.481 249.129 477.306 256.251V256.251Z" fill="white"/>
<path d="M580.525 268.363C566.64 299.576 558.045 332.882 555.092 366.915C554.974 368.267 557.084 368.259 557.201 366.915C559.498 340.672 565.171 314.835 574.079 290.043C574.054 287.282 586.209 264.869 580.525 268.363V268.363Z" fill="white"/>
<path d="M336.239 367.294C352.289 338.909 321.505 324.371 317.542 354.346C317.342 350.478 317.129 346.547 315.844 342.893C313.892 335.313 303.287 329.82 298.221 337.493C295.544 342.248 299.095 348.917 296.015 353.423C294.073 342.084 277.606 344.744 279.34 356.121C280.642 361.587 286.418 364.768 291.028 367.241L336.239 367.294Z" fill="#F2F2F2"/>
<path d="M281.699 349.253C289.846 351.896 300.027 356.348 300.853 366.08C300.877 366.466 301.481 366.469 301.457 366.08C301.146 362.662 299.66 359.458 297.252 357.012C294.627 354.377 291.48 352.322 288.012 350.978C287.347 350.825 280.423 347.55 281.699 349.253Z" fill="white"/>
<path d="M302.282 335.019C307.92 344.432 310.603 355.321 309.983 366.276C309.961 366.664 310.565 366.663 310.587 366.276C311.068 357.666 309.534 349.062 306.108 341.148C305.723 340.439 302.619 332.98 302.282 335.019V335.019Z" fill="white"/>
<path d="M331.83 338.486C327.855 347.421 325.394 356.955 324.549 366.698C324.515 367.085 325.119 367.082 325.153 366.698C325.811 359.185 327.434 351.789 329.984 344.692C329.977 343.902 333.457 337.486 331.83 338.486V338.486Z" fill="white"/>
<path d="M233.362 15.6097H0.821694C0.603766 15.6097 0.394764 15.5231 0.240665 15.3691C0.0865671 15.215 -3.8147e-06 15.006 -3.8147e-06 14.7881C-3.8147e-06 14.5702 0.0865671 14.3613 0.240665 14.2072C0.394764 14.0531 0.603766 13.9666 0.821694 13.9666H233.362C233.58 13.9666 233.789 14.0531 233.943 14.2072C234.097 14.3613 234.184 14.5702 234.184 14.7881C234.184 15.006 234.097 15.215 233.943 15.3691C233.789 15.5231 233.58 15.6097 233.362 15.6097Z" fill="white"/>
<path d="M185.539 27.9333C193.254 27.9333 199.508 21.6802 199.508 13.9667C199.508 6.25309 193.254 0 185.539 0C177.824 0 171.57 6.25309 171.57 13.9667C171.57 21.6802 177.824 27.9333 185.539 27.9333Z" fill="#6C63FF"/>
<path d="M233.362 68.1903H0.821694C0.603766 68.1903 0.394764 68.1037 0.240665 67.9496C0.0865671 67.7956 -3.8147e-06 67.5866 -3.8147e-06 67.3687C-3.8147e-06 67.1508 0.0865671 66.9418 0.240665 66.7878C0.394764 66.6337 0.603766 66.5471 0.821694 66.5471H233.362C233.58 66.5471 233.789 66.6337 233.943 66.7878C234.097 66.9418 234.184 67.1508 234.184 67.3687C234.184 67.5866 234.097 67.7956 233.943 67.9496C233.789 68.1037 233.58 68.1903 233.362 68.1903Z" fill="white"/>
<path d="M55.7105 80.5136C63.4253 80.5136 69.6793 74.2606 69.6793 66.547C69.6793 58.8334 63.4253 52.5803 55.7105 52.5803C47.9957 52.5803 41.7416 58.8334 41.7416 66.547C41.7416 74.2606 47.9957 80.5136 55.7105 80.5136Z" fill="#6C63FF"/>
<path d="M233.362 120.771H0.821694C0.603766 120.771 0.394764 120.684 0.240665 120.53C0.0865671 120.376 -3.8147e-06 120.167 -3.8147e-06 119.949C-3.8147e-06 119.731 0.0865671 119.522 0.240665 119.368C0.394764 119.214 0.603766 119.127 0.821694 119.127H233.362C233.58 119.127 233.789 119.214 233.943 119.368C234.097 119.522 234.184 119.731 234.184 119.949C234.184 120.167 234.097 120.376 233.943 120.53C233.789 120.684 233.58 120.771 233.362 120.771Z" fill="white"/>
<path d="M110.764 133.094C118.479 133.094 124.733 126.841 124.733 119.127C124.733 111.414 118.479 105.161 110.764 105.161C103.049 105.161 96.7954 111.414 96.7954 119.127C96.7954 126.841 103.049 133.094 110.764 133.094Z" fill="#6C63FF"/>
<path d="M339.825 129.123C340.113 129.514 340.371 129.928 340.594 130.36L383.903 135.229L390.202 126.72L404.288 134.546L391.888 155.214L338.829 141.292C337.479 142.59 335.765 143.446 333.917 143.746C332.068 144.047 330.172 143.777 328.48 142.974C326.788 142.171 325.381 140.871 324.446 139.249C323.51 137.626 323.091 135.758 323.244 133.891C323.397 132.025 324.114 130.249 325.301 128.8C326.487 127.352 328.087 126.298 329.887 125.781C331.687 125.263 333.602 125.306 335.377 125.903C337.152 126.5 338.704 127.623 339.825 129.123V129.123Z" fill="#FFB8B8"/>
<path d="M401.21 141.948C400.861 141.795 400.536 141.592 400.245 141.346L382.839 126.686C382.421 126.333 382.08 125.898 381.838 125.407C381.597 124.917 381.46 124.381 381.436 123.835C381.412 123.288 381.502 122.743 381.699 122.233C381.897 121.723 382.199 121.259 382.585 120.872L398.38 105.014C399.043 104.343 399.926 103.932 400.867 103.857C401.807 103.782 402.744 104.048 403.505 104.606L415.45 113.278C416.195 113.82 416.728 114.605 416.957 115.498C417.185 116.39 417.095 117.334 416.701 118.168L406.368 140.013C405.928 140.942 405.144 141.664 404.181 142.025C403.218 142.386 402.153 142.359 401.21 141.948H401.21Z" fill="#6C63FF"/>
<path d="M469.101 349.296L458.705 352.123L442.848 313.377L458.19 309.204L469.101 349.296Z" fill="#FFB8B8"/>
<path d="M449.651 351.394L470.52 345.717L473.955 358.339L441.283 367.227L441.059 366.407C440.208 363.277 440.634 359.937 442.246 357.122C443.857 354.306 446.521 352.246 449.651 351.394V351.394Z" fill="#2F2E41"/>
<path d="M380.228 357.227L369.455 357.226L364.329 315.677L380.231 315.678L380.228 357.227Z" fill="#FFB8B8"/>
<path d="M360.909 354.148H382.537V367.229H348.677V366.379C348.677 363.135 349.966 360.024 352.26 357.731C354.554 355.437 357.665 354.148 360.909 354.148V354.148Z" fill="#2F2E41"/>
<path d="M411.721 76.5756C420.15 68.1479 420.15 54.4839 411.721 46.0562C403.292 37.6285 389.625 37.6285 381.196 46.0562C372.767 54.4839 372.767 68.1479 381.196 76.5756C389.625 85.0034 403.292 85.0033 411.721 76.5756Z" fill="#FFB8B8"/>
<path d="M379.569 327.602H364.846C363.84 327.601 362.871 327.216 362.138 326.527C361.404 325.838 360.96 324.896 360.895 323.892C356.508 254.161 359.075 204.142 368.971 166.479C369.014 166.315 369.068 166.153 369.131 165.995L369.92 164.024C370.211 163.288 370.717 162.658 371.372 162.214C372.027 161.771 372.801 161.535 373.592 161.538H403.868C404.438 161.537 405.002 161.661 405.52 161.899C406.039 162.137 406.499 162.485 406.87 162.918L410.983 167.716C411.063 167.809 411.138 167.905 411.21 168.005C429.754 193.86 446.372 244.407 465.618 312.348C465.902 313.335 465.789 314.395 465.304 315.3C464.818 316.205 463.998 316.885 463.018 317.195L447.196 322.258C446.287 322.544 445.306 322.494 444.431 322.118C443.557 321.742 442.846 321.064 442.428 320.209L401.369 235.061C401.082 234.466 400.611 233.979 400.025 233.673C399.44 233.366 398.771 233.256 398.119 233.36C397.466 233.463 396.864 233.773 396.401 234.245C395.939 234.717 395.641 235.325 395.551 235.98L383.487 324.184C383.355 325.13 382.885 325.996 382.166 326.624C381.446 327.252 380.524 327.599 379.569 327.602V327.602Z" fill="#2F2E41"/>
<path d="M409.323 168.067C409.281 168.067 409.24 168.066 409.199 168.065L372.423 166.904C371.477 166.878 370.573 166.512 369.875 165.874C369.176 165.236 368.731 164.369 368.619 163.43C363.957 125.699 376.742 115.591 382.456 112.998C382.933 112.782 383.347 112.447 383.657 112.025C383.967 111.602 384.162 111.107 384.224 110.587L384.718 106.633C384.803 105.934 385.073 105.271 385.5 104.712C394.458 93.1096 406.69 89.3942 413.184 88.2126C413.711 88.118 414.251 88.1314 414.773 88.252C415.294 88.3726 415.785 88.598 416.217 88.9143C416.648 89.2307 417.011 89.6314 417.283 90.0923C417.555 90.5531 417.73 91.0644 417.799 91.5951L418.539 97.2737C418.615 97.8154 418.831 98.3278 419.166 98.7599C437.848 123.179 417.036 159.235 412.674 166.214C412.317 166.781 411.823 167.248 411.237 167.572C410.651 167.896 409.992 168.066 409.323 168.067Z" fill="#6C63FF"/>
<path d="M405.893 221.695C407.023 220.903 407.965 219.873 408.654 218.677C409.342 217.481 409.76 216.148 409.878 214.774C409.996 213.399 409.811 212.015 409.336 210.719C408.861 209.423 408.107 208.248 407.129 207.275L413.96 124.795L393.621 127.592L393.234 207.729C391.708 209.481 390.878 211.732 390.901 214.055C390.924 216.378 391.799 218.612 393.359 220.334C394.919 222.055 397.057 223.145 399.367 223.396C401.677 223.647 403.999 223.042 405.893 221.695H405.893Z" fill="#FFB8B8"/>
<path d="M415.289 136.671C414.908 136.671 414.529 136.616 414.163 136.508L392.329 130.088C391.804 129.933 391.317 129.672 390.899 129.32C390.48 128.968 390.139 128.532 389.897 128.042C389.656 127.551 389.518 127.016 389.494 126.469C389.47 125.923 389.56 125.377 389.757 124.867L397.837 103.996C398.174 103.114 398.817 102.383 399.649 101.936C400.48 101.489 401.444 101.356 402.365 101.561L416.791 104.696C417.691 104.892 418.495 105.396 419.063 106.122C419.631 106.847 419.929 107.748 419.903 108.669L419.232 132.825C419.204 133.853 418.776 134.829 418.04 135.547C417.304 136.265 416.317 136.668 415.289 136.671V136.671Z" fill="#6C63FF"/>
<path d="M597.387 368.884H284.32C284.103 368.884 283.894 368.798 283.739 368.643C283.585 368.489 283.499 368.28 283.499 368.063C283.499 367.845 283.585 367.636 283.739 367.482C283.894 367.328 284.103 367.241 284.32 367.241H597.387C597.605 367.241 597.814 367.328 597.968 367.482C598.122 367.636 598.209 367.845 598.209 368.063C598.209 368.28 598.122 368.489 597.968 368.643C597.814 368.798 597.605 368.884 597.387 368.884Z" fill="#3F3D56"/>
<path d="M420.206 47.8944C418.603 43.0354 417.42 38.0479 416.669 32.9867C416.433 30.0402 417.188 26.8697 419.334 24.8366C423.351 21.0318 430.175 22.844 434.375 26.4448C440.446 31.6489 443.473 39.6464 444.618 47.5592C445.762 55.4719 445.258 63.5185 445.534 71.5088C445.809 79.4991 446.952 87.715 451.026 94.5944C455.101 101.474 462.661 106.754 470.636 106.169C473.855 105.995 476.911 104.7 479.275 102.508C480.435 101.405 481.314 100.039 481.838 98.5258C482.361 97.0125 482.514 95.3958 482.284 93.8113C486.36 101.109 484.294 110.999 478.214 116.736C472.134 122.473 462.782 124.095 454.789 121.645C446.797 119.196 440.218 113.054 436.289 105.677C432.36 98.2992 430.92 89.7768 431.129 81.4211C431.289 75.0045 432.38 68.5354 431.295 62.2091C430.211 55.8827 426.251 49.4592 420.007 47.9695L420.206 47.8944Z" fill="#2F2E41"/>
<path d="M392.165 56.2119C391.1 59.7678 387.028 61.9604 383.365 61.3591C379.701 60.7577 376.689 57.7413 375.576 54.2003C374.57 50.5837 374.982 46.7195 376.728 43.3963C377.69 41.4044 379.036 39.6217 380.688 38.1504C382.34 36.679 384.266 35.5479 386.356 34.8217C388.458 34.1253 390.696 33.9441 392.882 34.2934C395.068 34.6427 397.139 35.5122 398.919 36.8288C399.108 36.0299 399.507 35.2961 400.075 34.7027C400.642 34.1093 401.358 33.6779 402.147 33.4528C403.738 33.0243 405.416 33.0491 406.993 33.5242C411.536 34.8189 415.473 37.6826 418.104 41.6063C420.701 45.5179 422.419 49.946 423.14 54.5854C424.38 61.5429 423.922 69.1456 420.014 75.0341C416.106 80.9225 408.11 84.3995 401.624 81.5922C401.219 79.5248 402.177 77.4431 403.286 75.6516C404.394 73.8602 405.708 72.115 406.134 70.0519C406.56 67.9887 405.744 65.4651 403.748 64.7904C402.045 64.2148 400.229 65.1474 398.435 65.26C397.417 65.324 396.399 65.1189 395.485 64.6655C394.57 64.2121 393.791 63.5262 393.225 62.6766C392.66 61.8271 392.327 60.8437 392.262 59.8253C392.196 58.8068 392.4 57.789 392.852 56.8739L392.165 56.2119Z" fill="#2F2E41"/>
</g>
<defs>
<clipPath id="clip0">
<rect width="612" height="369" fill="white"/>
</clipPath>
</defs>
</svg>
