<svg width="359" height="283" viewBox="0 0 359 283" fill="none" xmlns="http://www.w3.org/2000/svg">
<g clip-path="url(#clip0)">
<path d="M177.314 151.074C78.6866 146.781 2.21566 125.752 3.2203 103.198C3.82262 89.676 31.735 78.8026 79.8001 73.3671C79.9721 73.3465 80.1466 73.3597 80.3134 73.4061C80.4802 73.4524 80.6361 73.5308 80.7721 73.6369C80.9081 73.7431 81.0216 73.8747 81.1059 74.0244C81.1903 74.174 81.2438 74.3386 81.2635 74.5088C81.2832 74.679 81.2686 74.8513 81.2207 75.0159C81.1727 75.1805 81.0923 75.3341 80.984 75.4678C80.8757 75.6015 80.7418 75.7128 80.5898 75.7951C80.4379 75.8775 80.271 75.9293 80.0987 75.9476C34.8214 81.0684 6.3692 91.5539 5.84541 103.312C4.93691 123.708 83.5125 144.392 177.429 148.479C271.346 152.567 351.456 138.789 352.365 118.394C352.891 106.586 325.304 93.6331 280.369 84.5904C280.2 84.5568 280.039 84.4905 279.895 84.3952C279.752 84.2999 279.628 84.1776 279.533 84.0352C279.437 83.8928 279.371 83.7332 279.338 83.5655C279.305 83.3978 279.306 83.2253 279.34 83.0578C279.375 82.8904 279.442 82.7313 279.539 82.5897C279.636 82.4481 279.76 82.3268 279.904 82.2327C280.048 82.1387 280.21 82.0736 280.38 82.0414C280.55 82.0092 280.724 82.0104 280.894 82.045C328.588 91.6432 355.595 104.933 354.99 118.508C353.986 141.062 275.941 155.367 177.314 151.074Z" fill="white"/>
<path d="M89.8048 154.54C97.98 170.24 110.09 183.495 124.924 192.978C139.758 202.46 156.794 207.839 174.33 208.574C191.865 209.31 209.284 205.378 224.844 197.17C240.404 188.963 253.559 176.768 262.993 161.807C205.176 162.595 147.359 160.169 89.8048 154.54Z" fill="white"/>
<path d="M274.09 135.218C279.005 120.429 280.421 104.695 278.226 89.2625C276.032 73.8296 270.287 59.121 261.447 46.3007C252.606 33.4804 240.913 22.9003 227.292 15.3978C213.671 7.89535 198.496 3.67637 182.969 3.07482C167.442 2.47327 151.988 5.50565 137.831 11.932C123.673 18.3583 111.202 28.0022 101.402 40.1003C91.6023 52.1985 84.7439 66.4188 81.3697 81.6359C77.9954 96.853 78.1979 112.649 81.961 127.774C145.414 138.581 209.996 141.083 274.09 135.218Z" fill="white"/>
<path d="M199 130.153C199 138.143 206.387 136.935 215.5 136.935C224.613 136.935 232 138.143 232 130.153C232 122.163 228.391 108 215.5 108C202.164 108 199 122.163 199 130.153Z" fill="#2F2E41"/>
<path d="M8.59211 250.982C11.414 251.973 14.4437 252.221 17.3895 251.703C20.3352 251.184 23.0977 249.916 25.4108 248.021C31.3016 243.081 33.1485 234.942 34.6513 227.405L39.0963 205.113L29.7903 211.516C23.0979 216.12 16.2549 220.872 11.6211 227.542C6.98738 234.211 4.96475 243.315 8.68782 250.532" fill="#E6E6E6"/>
<path d="M9.38757 277.971C8.44567 271.115 7.47716 264.172 8.13785 257.243C8.72461 251.089 10.6034 245.079 14.4285 240.151C16.4589 237.54 18.9294 235.303 21.7291 233.541C22.4592 233.08 23.1311 234.236 22.4042 234.695C17.56 237.754 13.8131 242.271 11.7039 247.595C9.37426 253.516 9.00016 259.97 9.40161 266.26C9.64438 270.063 10.1589 273.842 10.6774 277.615C10.7183 277.786 10.6928 277.966 10.6061 278.119C10.5193 278.271 10.3779 278.385 10.2103 278.438C10.0393 278.484 9.85699 278.46 9.70297 278.373C9.54896 278.286 9.43563 278.141 9.38757 277.971Z" fill="#F2F2F2"/>
<path d="M71.7203 268.529C72.8218 269.829 74.2399 270.823 75.8378 271.417C77.4357 272.01 79.1597 272.183 80.8436 271.917C85.1652 271.185 88.4213 267.715 91.3344 264.442L99.9506 254.762L93.528 255.23C88.9093 255.566 84.1739 255.932 79.9716 257.876C75.7693 259.821 72.1484 263.714 71.8972 268.335" fill="#E6E6E6"/>
<path d="M18.4597 265.84C19.6699 267.678 21.3335 269.173 23.2901 270.182C25.2467 271.192 27.4304 271.68 29.6308 271.601C35.2858 271.333 40.0003 267.389 44.2442 263.645L56.7969 252.571L48.4891 252.173C42.5146 251.888 36.386 251.621 30.6956 253.462C25.0051 255.303 19.7571 259.734 18.7165 265.619" fill="#E6E6E6"/>
<path d="M64.3257 282.028C65.8402 278.386 67.3671 274.693 69.6908 271.476C71.7544 268.62 74.4121 266.206 77.7144 264.884C79.4659 264.186 81.3259 263.797 83.2109 263.737C83.7027 263.721 83.6996 264.483 83.2099 264.499C79.9456 264.608 76.8002 265.75 74.2272 267.76C71.3738 270 69.328 273.066 67.711 276.274C66.7331 278.214 65.8961 280.22 65.0624 282.224C65.0332 282.32 64.9688 282.401 64.8822 282.451C64.7955 282.501 64.6931 282.517 64.5955 282.494C64.4982 282.467 64.4152 282.403 64.3647 282.316C64.3142 282.229 64.3002 282.125 64.3257 282.028H64.3257Z" fill="#F2F2F2"/>
<path d="M6.72571 281.912C11.2592 273.896 16.5176 264.988 25.9135 262.141C28.5261 261.352 31.2655 261.069 33.9842 261.308C34.8411 261.382 34.6271 262.702 33.7718 262.628C29.2146 262.25 24.6661 263.452 20.8922 266.033C17.2607 268.503 14.4331 271.937 12.0399 275.578C10.574 277.809 9.26091 280.134 7.94759 282.456C7.52787 283.198 6.3011 282.662 6.72571 281.912Z" fill="#F2F2F2"/>
<path d="M202.51 145.098C211.524 140.147 222.743 141.141 232.455 144.525C242.167 147.91 250.968 153.455 260.4 157.556C289.221 170.089 323.957 168.068 351.128 152.278C353.698 158.251 350.941 165.082 347.913 170.836C344.885 176.591 341.433 182.827 342.68 189.208C344.275 197.373 352.843 202.268 356.314 209.83C359.609 217.008 357.841 225.438 355.313 232.92C352.785 240.403 349.504 247.941 349.933 255.827C350.363 263.712 356.097 272.051 364 272.057C352.287 273.875 340.344 275.695 328.639 273.832C316.933 271.968 305.289 265.782 299.854 255.256C297.138 249.995 296.09 243.946 292.971 238.914C287.657 230.342 277.458 226.311 267.836 223.273C258.214 220.234 247.916 217.308 241.141 209.835C234.686 202.714 232.642 192.795 229.222 183.816C223.462 168.785 213.457 155.748 200.424 146.29" fill="#6C75FF"/>
<path d="M191.832 277.158L186.597 275.586L190.173 254.661L197.899 256.981L191.832 277.158Z" fill="#FFB8B8"/>
<path d="M191.643 282.629L174.763 277.561L174.827 277.348C175.086 276.486 175.513 275.683 176.082 274.986C176.652 274.288 177.354 273.71 178.147 273.283C178.94 272.857 179.81 272.591 180.706 272.5C181.603 272.41 182.508 272.496 183.371 272.755L183.371 272.755L193.681 275.851L191.643 282.629Z" fill="#2F2E41"/>
<path d="M241.233 277.335L235.767 277.334L233.166 256.266L241.234 256.267L241.233 277.335Z" fill="#FFB8B8"/>
<path d="M242.627 282.629L225.001 282.628V282.406C225.001 281.505 225.179 280.614 225.524 279.782C225.868 278.951 226.374 278.195 227.011 277.558C227.648 276.922 228.404 276.417 229.236 276.073C230.069 275.728 230.961 275.551 231.862 275.551H231.862L242.627 275.551L242.627 282.629Z" fill="#2F2E41"/>
<path d="M233.645 261.4C233.168 261.4 232.707 261.23 232.344 260.92C231.981 260.611 231.74 260.183 231.665 259.712L223.548 209.121C223.495 208.786 223.333 208.478 223.088 208.243C222.843 208.008 222.528 207.859 222.19 207.82C221.853 207.78 221.512 207.851 221.219 208.023C220.926 208.194 220.697 208.456 220.566 208.77L199.539 259.352C199.343 259.819 198.978 260.195 198.517 260.405C198.056 260.616 197.532 260.644 197.051 260.486L189.456 257.956C188.983 257.8 188.586 257.473 188.341 257.04C188.096 256.606 188.022 256.097 188.134 255.612L205.366 179.419C205.45 179.051 205.636 178.715 205.902 178.448C206.167 178.181 206.503 177.994 206.869 177.907L229.98 172.547C230.264 172.482 230.558 172.48 230.844 172.539C231.129 172.598 231.398 172.718 231.633 172.89C246.851 183.938 245.565 220.035 242.729 259.231C242.693 259.721 242.479 260.182 242.126 260.525C241.773 260.867 241.306 261.069 240.814 261.09L233.733 261.398C233.704 261.399 233.674 261.4 233.645 261.4Z" fill="#2F2E41"/>
<path d="M214.191 136.789C220.239 136.789 225.142 131.89 225.142 125.846C225.142 119.803 220.239 114.904 214.191 114.904C208.143 114.904 203.24 119.803 203.24 125.846C203.24 131.89 208.143 136.789 214.191 136.789Z" fill="#FFB8B8"/>
<path d="M228 125H223.569L221.614 119.462L221.223 125H219.105L217.965 121.769L217.737 125H202C202 121.817 203.249 118.765 205.474 116.515C207.698 114.264 210.714 113 213.86 113H216.14C219.286 113 222.302 114.264 224.526 116.515C226.75 118.765 228 121.817 228 125Z" fill="#2F2E41"/>
<path d="M214.664 182.56C212.035 182.543 209.443 181.944 207.073 180.807L206.992 180.769L206.96 180.685L197.137 155.256L196.95 150.838C196.888 149.361 197.136 147.887 197.678 146.51C198.22 145.134 199.044 143.887 200.098 142.849C201.152 141.811 202.412 141.004 203.797 140.482C205.181 139.96 206.66 139.733 208.137 139.816L218.565 140.403C221.259 140.556 223.793 141.729 225.652 143.683C227.51 145.637 228.553 148.226 228.569 150.922C228.84 151.442 230.763 155.507 226.994 159.327C226.853 160.196 225.534 169.238 230.51 174.21L230.65 174.35L230.528 174.505C230.449 174.606 224.058 182.559 214.664 182.56Z" fill="#6C63FF"/>
<path d="M229.307 184.478C229.923 184.255 230.483 183.899 230.947 183.437C231.41 182.974 231.767 182.415 231.991 181.8C232.216 181.184 232.302 180.527 232.245 179.875C232.188 179.222 231.988 178.59 231.66 178.023L242.075 165.975L233.864 164.907L225.233 176.512C224.316 177.126 223.657 178.055 223.38 179.122C223.102 180.189 223.227 181.321 223.729 182.303C224.231 183.285 225.076 184.049 226.104 184.45C227.132 184.851 228.272 184.861 229.307 184.478Z" fill="#FFB8B8"/>
<path d="M235.819 175.179C235.427 175.179 235.045 175.064 234.718 174.849L229.567 171.473C229.134 171.191 228.827 170.751 228.711 170.248C228.594 169.744 228.678 169.215 228.943 168.771L232.672 162.511C232.874 162.172 233.002 161.795 233.047 161.403C233.092 161.012 233.054 160.615 232.935 160.239C232.817 159.864 232.619 159.517 232.357 159.223C232.095 158.929 231.773 158.693 231.413 158.532L220.7 153.732C219.382 153.135 218.307 152.108 217.65 150.82C216.992 149.531 216.793 148.059 217.083 146.642C217.283 145.687 217.701 144.791 218.305 144.023C218.908 143.256 219.681 142.638 220.562 142.217C221.443 141.797 222.41 141.585 223.387 141.599C224.363 141.613 225.324 141.851 226.193 142.296L242.446 150.618C243.542 151.18 244.504 151.971 245.266 152.939C246.028 153.906 246.572 155.027 246.86 156.224C247.148 157.42 247.174 158.665 246.936 159.873C246.697 161.081 246.201 162.223 245.48 163.222L237.445 174.346C237.26 174.604 237.015 174.814 236.733 174.959C236.45 175.104 236.136 175.179 235.819 175.179Z" fill="#6C63FF"/>
<path d="M177.51 93.9799C178.087 94.2907 178.589 94.7241 178.98 95.2496C179.372 95.7751 179.643 96.38 179.775 97.0215C179.907 97.6631 179.896 98.3257 179.744 98.9628C179.592 99.5999 179.302 100.196 178.895 100.709L187.437 114.148L179.159 114.006L172.316 101.266C171.499 100.525 170.982 99.5099 170.864 98.4135C170.746 97.3172 171.034 96.2156 171.674 95.3175C172.315 94.4194 173.262 93.7872 174.338 93.5406C175.414 93.2941 176.542 93.4504 177.51 93.9799V93.9799Z" fill="#FFB8B8"/>
<path d="M184.396 103.55L195.397 129.524L206.931 149.066C207.418 149.891 207.711 150.816 207.788 151.771C207.864 152.726 207.723 153.685 207.374 154.577C207.026 155.469 206.479 156.271 205.775 156.921C205.071 157.57 204.228 158.052 203.31 158.329C201.855 158.76 200.294 158.658 198.908 158.039C197.521 157.421 196.402 156.327 195.753 154.957L173.523 107.494C173.402 107.237 173.338 106.956 173.334 106.671C173.33 106.387 173.387 106.104 173.501 105.843C173.615 105.582 173.783 105.349 173.994 105.158C174.206 104.967 174.455 104.823 174.726 104.736L181.934 102.422C182.071 102.378 182.212 102.349 182.355 102.334C182.78 102.291 183.208 102.386 183.576 102.605C183.944 102.824 184.231 103.155 184.396 103.55Z" fill="#6C63FF"/>
<path d="M216.566 48.2109V84.7435C216.566 84.8617 216.519 84.975 216.435 85.0586C216.352 85.1421 216.238 85.1891 216.12 85.1891C216.002 85.1891 215.888 85.1421 215.805 85.0586C215.721 84.975 215.674 84.8617 215.674 84.7435V48.2109C215.674 48.0927 215.721 47.9794 215.805 47.8959C215.888 47.8123 216.002 47.7654 216.12 47.7654C216.238 47.7654 216.352 47.8123 216.435 47.8959C216.519 47.9794 216.566 48.0927 216.566 48.2109Z" fill="#CCCCCC"/>
<path d="M255.279 79.2035L242.668 91.8047C242.584 91.888 242.471 91.9346 242.353 91.9345C242.234 91.9344 242.121 91.8874 242.038 91.804C241.954 91.7206 241.907 91.6075 241.907 91.4895C241.907 91.3715 241.954 91.2583 242.037 91.1747L254.648 78.5735C254.689 78.5319 254.739 78.499 254.793 78.4765C254.847 78.4539 254.905 78.4423 254.964 78.4423C255.022 78.4422 255.08 78.4537 255.134 78.4761C255.189 78.4985 255.238 78.5313 255.279 78.5727C255.321 78.6142 255.354 78.6634 255.376 78.7175C255.399 78.7717 255.41 78.8297 255.41 78.8883C255.41 78.9469 255.398 79.0049 255.376 79.059C255.353 79.1131 255.32 79.1622 255.279 79.2035Z" fill="#CCCCCC"/>
<path d="M176.961 79.2035L189.572 91.8047C189.656 91.8883 189.769 91.9352 189.888 91.9352C190.006 91.9352 190.119 91.8883 190.203 91.8047C190.287 91.7212 190.334 91.6079 190.334 91.4897C190.334 91.3715 190.287 91.2582 190.203 91.1747L177.592 78.5735C177.551 78.5319 177.501 78.499 177.447 78.4765C177.393 78.4539 177.335 78.4423 177.276 78.4423C177.218 78.4422 177.16 78.4537 177.106 78.4761C177.051 78.4985 177.002 78.5313 176.961 78.5727C176.919 78.6142 176.886 78.6634 176.864 78.7175C176.842 78.7717 176.83 78.8297 176.83 78.8883C176.83 78.9469 176.842 79.0049 176.864 79.059C176.887 79.1131 176.92 79.1622 176.961 79.2035Z" fill="#CCCCCC"/>
<path d="M39.5088 59.5175L40.1371 60.0766L39.6283 60.767L39.8833 60.9939L40.3921 60.3035L41.0204 60.8626L41.2268 60.5824L40.5985 60.0233L41.1073 59.3329L40.8523 59.106L40.3436 59.7964L39.7153 59.2373L39.5088 59.5175Z" fill="white"/>
<path d="M57.3653 23.0369L58.0407 23.578L57.4938 24.2462L57.7679 24.4658L58.3148 23.7976L58.9902 24.3387L59.2121 24.0676L58.5367 23.5264L59.0837 22.8582L58.8096 22.6386L58.2626 23.3068L57.5872 22.7657L57.3653 23.0369Z" fill="white"/>
<path d="M101.837 69.037L102.513 69.5781L101.966 70.2463L102.24 70.4659L102.787 69.7977L103.462 70.3388L103.684 70.0677L103.009 69.5265L103.556 68.8583L103.281 68.6387L102.735 69.3069L102.059 68.7658L101.837 69.037Z" fill="white"/>
<path d="M268.607 52.037L269.282 52.5781L268.735 53.2463L269.009 53.4659L269.556 52.7977L270.232 53.3388L270.453 53.0677L269.778 52.5265L270.325 51.8583L270.051 51.6387L269.504 52.3069L268.829 51.7658L268.607 52.037Z" fill="white"/>
<path d="M163.491 26.037L164.167 26.5781L163.62 27.2463L163.894 27.4659L164.441 26.7977L165.116 27.3388L165.338 27.0677L164.663 26.5265L165.21 25.8583L164.936 25.6387L164.389 26.3069L163.713 25.7658L163.491 26.037Z" fill="white"/>
<path d="M131.607 52.037L132.282 52.5781L131.735 53.2463L132.009 53.4659L132.556 52.7977L133.232 53.3388L133.453 53.0677L132.778 52.5265L133.325 51.8583L133.051 51.6387L132.504 52.3069L131.829 51.7658L131.607 52.037Z" fill="white"/>
<path d="M26.4913 26.037L27.1667 26.5781L26.6197 27.2463L26.8938 27.4659L27.4408 26.7977L28.1162 27.3388L28.3381 27.0677L27.6627 26.5265L28.2096 25.8583L27.9355 25.6387L27.3886 26.3069L26.7132 25.7658L26.4913 26.037Z" fill="white"/>
</g>
<defs>
<clipPath id="clip0">
<rect width="359" height="283" fill="white"/>
</clipPath>
</defs>
</svg>
