<svg width="58" height="57" viewBox="0 0 58 57" fill="none" xmlns="http://www.w3.org/2000/svg">
<path d="M30.1656 42.0413V39.3754H33.195C36.4746 39.3754 39.1455 36.6892 39.1455 33.3909C39.1455 30.9495 37.6647 28.8345 35.582 27.9096C36.8194 26.8079 37.597 25.2097 37.597 23.4212C37.597 20.1297 34.9261 17.4366 31.6465 17.4366H30.1656V14.7776H28.1776V17.4434H26.3857H25.2023V14.7776H23.2143V17.4434H20.3405V19.4428H23.2211V37.3829H20.3405V39.3822H23.2211V42.0481H25.2091V39.3754H26.3924H28.1844V42.0413H30.1656ZM26.3857 19.4428H31.6397C33.8239 19.4428 35.609 21.2382 35.609 23.428C35.609 25.6246 33.8239 27.4131 31.6397 27.4131H25.2023V19.4428H26.3857ZM25.2023 37.3761V29.4125H31.6397H33.1882C35.3724 29.4125 37.1508 31.1943 37.1508 33.3909C37.1508 35.5875 35.3791 37.3761 33.195 37.3761H26.3857H25.2023Z" fill="#7981EE"/>
<path d="M29.246 9.2832H29.2866L29.246 7.28381C19.4073 7.28381 10.9887 14.0096 8.78424 23.6393L10.7182 24.0882C12.7197 15.363 20.3405 9.2832 29.246 9.2832Z" fill="#7981EE"/>
<path d="M48.2675 28.4132V28.5628L50.2487 28.4132C50.2487 18.4979 43.5476 10.0311 33.9523 7.82092L33.5128 9.7591C42.202 11.7653 48.2675 19.4296 48.2675 28.4132Z" fill="#7981EE"/>
<path d="M10.2245 28.4131V28.3383L8.24328 28.4131C8.24328 38.2808 14.9106 46.7475 24.4585 48.9849L24.9048 47.0468C16.2562 45.0066 10.2245 37.3491 10.2245 28.4131Z" fill="#7981EE"/>
<path d="M29.246 47.5428H29.1311L29.246 49.5354C39.0509 49.5354 47.4493 42.8503 49.6943 33.2547L47.7671 32.8126C45.7385 41.4902 38.1245 47.5428 29.246 47.5428Z" fill="#7981EE"/>
<path d="M29.246 0C13.6664 0 0.994438 12.7444 0.994438 28.413C0.994438 44.0816 13.6664 56.8192 29.246 56.8192C44.8256 56.8192 57.4976 44.0816 57.4976 28.413C57.4976 12.7444 44.8256 0 29.246 0ZM29.246 54.8266C14.7618 54.8266 2.98246 42.9799 2.98246 28.413C2.98246 13.8461 14.7618 1.99938 29.246 1.99938C43.7302 1.99938 55.5095 13.8461 55.5095 28.413C55.5095 42.9799 43.7302 54.8266 29.246 54.8266Z" fill="#7981EE"/>
</svg>
