<svg width="86" height="72" viewBox="0 0 86 72" fill="none" xmlns="http://www.w3.org/2000/svg">
<path d="M0.578125 0.237793V49.8628H85.4221V0.237793H0.578125V0.237793ZM75.3281 7.92529C77.2122 7.92529 78.7656 9.47869 78.7656 11.3628C78.7656 13.2469 77.2122 14.8003 75.3281 14.8003C74.7904 14.8003 74.2835 14.6499 73.8281 14.4253L68.2656 22.5815C68.6435 23.1306 68.8594 23.7813 68.8594 24.4877C68.8594 26.3718 67.2748 27.9252 65.3906 27.9252C63.853 27.9252 62.5419 26.8922 62.1094 25.4877L50.1094 25.9252C49.7691 27.4707 48.3416 28.644 46.7032 28.644C46.0988 28.644 45.5429 28.4546 45.047 28.1753L37.922 35.519C38.0741 35.908 38.172 36.3316 38.172 36.769C38.172 38.6531 36.6186 40.2065 34.7345 40.2065C32.8504 40.2065 31.2657 38.6531 31.2657 36.769C31.2657 36.0228 31.5047 35.3102 31.9219 34.7378L25.1719 24.7068C24.7829 24.8588 24.3593 24.9568 23.9219 24.9568C22.6366 24.9568 21.5112 24.2332 20.9219 23.1755L12.9531 25.5818C12.9672 25.7067 12.9844 25.8284 12.9844 25.9568C12.9844 27.8409 11.431 29.4255 9.54688 29.4255C7.66278 29.4255 6.10938 27.841 6.10938 25.9568C6.10938 24.0727 7.66278 22.5193 9.54688 22.5193C10.5836 22.5193 11.5079 23.0011 12.1407 23.738L20.5157 21.2068C20.6786 19.469 22.145 18.0818 23.9219 18.0818C25.806 18.0818 27.3907 19.6352 27.3907 21.5193C27.3907 22.2409 27.1584 22.9009 26.7657 23.4568L33.5469 33.5189C33.9182 33.3801 34.3205 33.3001 34.7344 33.3001C35.456 33.3001 36.116 33.5324 36.6719 33.9252L43.6407 26.7377C43.4082 26.2759 43.2657 25.7541 43.2657 25.2065C43.2657 23.3224 44.8191 21.769 46.7032 21.769C48.1398 21.769 49.4033 22.661 49.922 23.9252L62.11 23.4877C62.5425 22.0832 63.8537 21.0502 65.3912 21.0502C65.8521 21.0502 66.2974 21.1634 66.7037 21.3314L72.3599 13.0502C72.072 12.5486 71.8911 11.977 71.8911 11.3627C71.8911 9.47863 73.4445 7.92523 75.3286 7.92523L75.3281 7.92529ZM75.0156 9.95654C74.3621 10.0829 73.9218 10.66 73.9218 11.3627C73.9218 12.166 74.5249 12.8002 75.328 12.8002C76.1312 12.8002 76.7655 12.166 76.7655 11.3627C76.7655 10.5595 76.1312 9.95654 75.328 9.95654C75.2276 9.95654 75.1089 9.93844 75.0155 9.95654H75.0156ZM23.6096 20.1125C22.9561 20.2389 22.5158 20.816 22.5158 21.5187C22.5158 22.322 23.1189 22.9562 23.922 22.9562C24.7252 22.9562 25.3595 22.322 25.3595 21.5187C25.3595 20.7155 24.7252 20.1125 23.922 20.1125C23.8216 20.1125 23.7029 20.0944 23.6095 20.1125H23.6096ZM65.0786 23.05C64.4251 23.1824 63.9848 23.7847 63.9848 24.4875C63.9848 25.2907 64.5879 25.8937 65.391 25.8937C66.1942 25.8937 66.8285 25.2906 66.8285 24.4875C66.8285 23.6843 66.1942 23.05 65.391 23.05C65.2906 23.05 65.1719 23.0311 65.0785 23.05H65.0786ZM46.3906 23.7687C45.7371 23.9011 45.2968 24.5033 45.2968 25.2062C45.2968 26.0094 45.8999 26.6125 46.703 26.6125C47.5062 26.6125 48.1405 26.0094 48.1405 25.2062C48.1405 24.4029 47.5062 23.7687 46.703 23.7687C46.6026 23.7687 46.4839 23.7498 46.3905 23.7687H46.3906ZM9.23462 24.55C8.5811 24.6764 8.14083 25.2535 8.14083 25.9562C8.14083 26.7595 8.74386 27.3937 9.54703 27.3937C10.3502 27.3937 10.9845 26.7595 10.9845 25.9562C10.9845 25.153 10.3502 24.55 9.54703 24.55C9.44663 24.55 9.32789 24.5319 9.23453 24.55H9.23462ZM34.4226 35.331C33.7631 35.4634 33.2976 36.0657 33.2976 36.7685C33.2976 37.5717 33.9319 38.1748 34.7351 38.1748C35.5383 38.1748 36.1413 37.5717 36.1413 36.7685C36.1413 35.9653 35.5383 35.331 34.7351 35.331C34.6347 35.331 34.5168 35.312 34.4226 35.331ZM37.5476 51.862L36.1101 66.4241H49.8601L48.4226 51.862H37.5476V51.862ZM27.9851 68.4241V71.7677H57.9851V68.4241H27.9851Z" fill="#7981EE"/>
</svg>
