<svg width="96" height="90" viewBox="0 0 96 90" fill="none" xmlns="http://www.w3.org/2000/svg">
<path d="M95.1 66C95.2 64.2 94.1 62.2 91.6 62.1C89.8 62 86.1 64 85.1 64.5C81.5 66.3 76.4 69.2 73.1 71.5C72.9 71.7 72.6 71.9 72.3 72C70.8 73 69.2 73.6 67.5 74C57.9 76.1 43.8 76.3 43.8 76.3H43C42.4 76.3 41.8 75.9 41.7 75.3C41.6 74.6 42.1 74 42.8 74L63.7 72C66 71.8 67.8 69.6 67.6 67.2C67.4 64.8 65.1 63 62.8 63.3L44.2 63.1C42.9 63.1 40.9 62.8 39.7 62.4C27.7 58.9 21 62.2 17.4 63.7C16.6 62.4 15.1 61.5 13.4 61.6L5.40001 62.1C2.70001 62.3 0.700011 64.5 0.900011 67.1L2.20001 84.9C2.40001 87.5 4.70001 89.4 7.40001 89.2L15.4 88.7C17.1 88.6 18.5 87.5 19.1 86.1L54.3 87.6C58.2 88 61.9 87.5 65.3 85.7L66.3 85.2L92.9 69.6C94.1 68.8 95.1 67.4 95.1 66ZM10.3 84.9C8.80001 84.9 7.60001 83.7 7.60001 82.3C7.60001 80.8 8.80001 79.7 10.3 79.7C11.8 79.7 13 80.9 13 82.3C13 83.7 11.8 84.9 10.3 84.9ZM71.8 68.2C71.8 67.7 71.8 67.2 71.8 66.7C71.7 66.1 71.6 65.5 71.4 64.9V64.8C74.2 63.3 79.7 60.6 82.7 59.4C84.2 58.8 85.7 58.8 87 59.8C85.9 60.2 84.9 60.7 84 61.1C80.9 62.7 75.3 65.7 72.6 67.6C72.4 67.8 72.1 68 71.8 68.2ZM79.9 57.6C77.7 58.6 73.6 60 71.6 61.1L70.3 61.8C70.2 61.9 70.1 62 69.9 62C69.3 61.3 68.6 60.7 67.8 60.2C69.6 59.2 73.8 57.9 75.6 57.2C77 56.7 78.5 56.7 79.9 57.6ZM24.7 24.4C23.7 24.6 23 25.4 23 26.4V29V31.6C23 32.6 23.7 33.4 24.7 33.6L29.9 34.5C30.4 36.4 31.2 38.3 32.3 40.1L29.3 44.3C28.7 45.1 28.8 46.2 29.5 46.9L31.3 48.7L33.1 50.5C33.8 51.2 34.9 51.3 35.7 50.7L40 47.6C41.8 48.6 43.7 49.4 45.6 49.9L46.5 55C46.7 56 47.5 56.7 48.5 56.7H51.1H53.7C54.7 56.7 55.5 56 55.7 55L56.6 49.8C58.5 49.3 60.3 48.5 62.1 47.5L66.4 50.5C67.2 51.1 68.3 51 69 50.3L70.8 48.5L72.6 46.7C73.3 46 73.4 44.9 72.8 44.1L69.7 39.8C70.7 38 71.5 36.2 72 34.2L77.2 33.3C78.2 33.1 78.9 32.3 78.9 31.3V28.7V26.1C78.9 25.1 78.2 24.3 77.2 24.1L72 23.2C71.5 21.2 70.7 19.4 69.7 17.6L72.7 13.3C73.3 12.5 73.2 11.4 72.5 10.7L70.6 9.00002L68.8 7.20002C68.1 6.60002 67 6.50002 66.2 7.00002L61.9 10.1C60.1 9.10003 58.3 8.30002 56.3 7.80002L55.4 2.60002C55.2 1.60002 54.4 0.900024 53.4 0.900024H50.8H48.2C47.2 0.900024 46.4 1.60002 46.2 2.60002L45.3 7.80002C43.3 8.30002 41.4 9.10002 39.6 10.2L35.4 7.20002C34.6 6.60002 33.5 6.70002 32.8 7.40002L31 9.20002L29.2 11C28.5 11.7 28.4 12.8 29 13.6L32.1 17.9C31.1 19.7 30.3 21.6 29.8 23.5L24.7 24.4ZM42.5 20.1C47.2 15.4 54.9 15.4 59.6 20.1C64.3 24.8 64.3 32.5 59.6 37.2C54.9 41.9 47.2 41.9 42.5 37.2C37.8 32.5 37.8 24.8 42.5 20.1ZM46 33.7C43.2 30.9 43.2 26.4 46 23.6C48.8 20.8 53.3 20.8 56.1 23.6C58.9 26.4 58.9 30.9 56.1 33.7C53.3 36.5 48.8 36.5 46 33.7Z" fill="#7981EE"/>
</svg>
